<svg id="Layer_1" data-name="Layer 1" xmlns="http://www.w3.org/2000/svg" viewBox="0 0 64 64"><defs><style>.cls-1{fill:#fff;}.cls-2{fill:#404241;}</style></defs><path d="M644.22-2861.61V2919.52H-10186.16V-2861.61H644.22m2-2H-10188.16V2921.52H646.22V-2863.61Z"/><g id="lines-light"><path class="cls-1" d="M11.36,49.91a9.85,9.85,0,0,1-2.6-19.36,1.5,1.5,0,0,0,1.11-1.5v-.17a6.41,6.41,0,0,1,11.34-4.2,1.52,1.52,0,0,0,1.15.54,1.43,1.43,0,0,0,.29,0,1.5,1.5,0,0,0,1.14-1,14.34,14.34,0,0,1,28,4.26v.27a1.49,1.49,0,0,0,1.41,1.53,9.85,9.85,0,0,1-.58,19.69Z"/><path class="cls-2" d="M37.48,15.59A12.84,12.84,0,0,1,50.31,28.42v.25a3,3,0,0,0,2.82,3,8.35,8.35,0,0,1-.49,16.69H11.36A8.35,8.35,0,0,1,9.16,32a3,3,0,0,0,2.21-3c0-.07,0-.14,0-.24a4.92,4.92,0,0,1,8.7-3.11,3,3,0,0,0,2.3,1.08,3,3,0,0,0,.59-.06,3,3,0,0,0,2.27-2.05,12.78,12.78,0,0,1,12.27-9m0-3A15.84,15.84,0,0,0,22.35,23.72a7.92,7.92,0,0,0-14,5.07,3,3,0,0,0,0,.31,11.35,11.35,0,0,0,3,22.31H52.64a11.35,11.35,0,0,0,.67-22.69v-.3A15.83,15.83,0,0,0,37.48,12.59Z"/></g></svg>