<svg id="Layer_1" data-name="Layer 1" xmlns="http://www.w3.org/2000/svg" viewBox="0 0 128 128"><defs><style>.cls-1{fill:#fff;}.cls-2{fill:#404241;}</style></defs><path d="M814.54-2829.61V2951.52H-10015.85V-2829.61H814.54m2-2H-10017.85V2953.52H816.54V-2831.61Z"/><g id="lines-light"><path class="cls-1" d="M22.72,100.83a20.72,20.72,0,0,1-5.46-40.7,2,2,0,0,0,1.48-2l0-.31a1.93,1.93,0,0,1,0-.24,13.83,13.83,0,0,1,24.45-8.86,2,2,0,0,0,1.54.71,1.72,1.72,0,0,0,.39,0A2,2,0,0,0,46.61,48a29.68,29.68,0,0,1,58,8.82l0,.57a2,2,0,0,0,1.89,2,20.71,20.71,0,0,1-1.22,41.39Z"/><path class="cls-2" d="M75,29.17a27.71,27.71,0,0,1,27.68,27.68c0,.07,0,.15,0,.22v.3a4,4,0,0,0,3.77,4.07,18.71,18.71,0,0,1-1.1,37.39H22.72a18.71,18.71,0,0,1-4.93-36.77,4,4,0,0,0,2.94-4c0-.12,0-.24,0-.37v-.1A11.84,11.84,0,0,1,41.63,50a4,4,0,0,0,3.07,1.43,4.11,4.11,0,0,0,.78-.07,4,4,0,0,0,3-2.74A27.55,27.55,0,0,1,75,29.17m0-4A31.69,31.69,0,0,0,44.7,47.43a15.84,15.84,0,0,0-28,10.15c0,.21,0,.42,0,.62a22.71,22.71,0,0,0,6,44.63h82.56a22.71,22.71,0,0,0,1.33-45.38c0-.2,0-.4,0-.6A31.68,31.68,0,0,0,75,25.17Z"/></g></svg>