<svg id="Layer_1" data-name="Layer 1" xmlns="http://www.w3.org/2000/svg" viewBox="0 0 256 256"><defs><style>.cls-1{fill:#fff;}.cls-2{fill:#404241;}</style></defs><path d="M1111.83-2765.61V3015.52H-9718.56V-2765.61H1111.83m2-2H-9720.56V3017.52H1113.83V-2767.61Z"/><g id="lines-light"><path class="cls-1" d="M45.45,202.66A42.43,42.43,0,0,1,34.26,119.3a3,3,0,0,0,2.21-3l0-.59c0-.18,0-.36,0-.54A28.67,28.67,0,0,1,87.09,96.79a3,3,0,0,0,2.3,1.08,2.88,2.88,0,0,0,.59-.06,3,3,0,0,0,2.28-2,60.36,60.36,0,0,1,118,17.93c0,.21,0,.41,0,.61l0,.54a3,3,0,0,0,2.83,3,42.42,42.42,0,0,1-2.5,84.77Z"/><path class="cls-2" d="M149.9,56.34a57.41,57.41,0,0,1,57.35,57.35c0,.18,0,.35,0,.52s0,.38,0,.57a6,6,0,0,0,5.65,6.11,39.42,39.42,0,0,1-2.32,78.77H45.45a39.42,39.42,0,0,1-10.4-77.46,6,6,0,0,0,4.42-6c0-.23,0-.45,0-.67s0-.23,0-.34A25.67,25.67,0,0,1,84.79,98.72a6,6,0,0,0,4.6,2.15,5.91,5.91,0,0,0,1.18-.12,6,6,0,0,0,4.55-4.1,57.89,57.89,0,0,1,20.46-28.91,56.86,56.86,0,0,1,34.32-11.4m0-6A63.39,63.39,0,0,0,89.39,94.87a31.67,31.67,0,0,0-56,20.3c0,.42.05.82.06,1.24a45.43,45.43,0,0,0,12,89.25h165.1a45.42,45.42,0,0,0,2.67-90.76c0-.41,0-.8,0-1.21A63.35,63.35,0,0,0,149.9,50.34Z"/></g></svg>