<svg xmlns="http://www.w3.org/2000/svg" xmlns:xlink="http://www.w3.org/1999/xlink" xmlns:lucid="lucid" width="2227.25" height="1185.88"><g transform="translate(-500.0000000000001 165.8773227211439)" lucid:page-tab-id="0_0"><path d="M500-500h2500v1500H500z" fill="#fff"/><path d="M672.2-136.9l51.9 30.22c6.2 3.6 9.94 10.13 9.94 17.32v61.9c0 7.84-4.18 15.03-11.1 18.95l-51.6 28.9c-6.78 3.92-15.14 3.92-21.92 0L602-6.87c-7.5-4.25-12.1-12.26-12.1-20.9v-58.65c0-8.82 4.46-16.83 11.8-21.24l46.7-28.9c7.22-4.42 16.45-4.58 23.8-.34z" stroke="#c9177e" stroke-width="10.36" fill="#ff4088"/><path d="M625.93-11.78v-93.92h19.75v34.3h32.57v-34.3H698v93.92h-19.75v-41h-32.57v41h-19.75z" stroke="#000" stroke-opacity="0" stroke-width=".38" fill="#fff"/><path d="M520 29.34a6 6 0 0 1 6-6h271.93a6 6 0 0 1 6 6v58.98a6 6 0 0 1-6 6H526a6 6 0 0 1-6-6z" fill="none"/><use xlink:href="#a" transform="matrix(1,0,0,1,520.0000000000001,23.342962194378657) translate(102.07407407407408 40.83333333333333)"/><path d="M728.6 535.5h-62.05c-.56 0-1.27-.12-1.84-.58l-17.6-11.83c-.56-.36-1.13-.6-1.84-.6h-52.1c-1.85 0-3.27 1.52-3.27 3.4v110.33c0 1.87 1.56 3.4 3.26 3.4H728.6c1.84 0 3.26-1.53 3.26-3.4v-97.45c0-1.76-1.56-3.28-3.27-3.28z" stroke="#000" stroke-opacity="0" fill="#dfa500"/><path d="M604.15 528.92h29.52c.9 0 1.35.46 1.35 1.37v3.76c0 .92-.45 1.37-1.35 1.37h-29.52c-.9 0-1.35-.45-1.35-1.37v-3.77c0-.92.45-1.38 1.35-1.38z" stroke="#000" stroke-opacity="0" fill="#fff"/><path d="M728.6 535.4h-68c-1 0-1.85.3-2.42.92l-10.93 11.14c-.7.63-1.42.94-2.42.94h-51.67c-1.85 0-3.27 1.46-3.27 3.33v84.44c0 1.88 1.56 3.34 3.26 3.34H728.6c1.7 0 3.26-1.45 3.26-3.33v-97.45c0-1.88-1.56-3.34-3.27-3.34z" stroke="#000" stroke-opacity="0" fill="url(#b)"/><path d="M687.28 574.4v31.2l-26.7 15.63V590l26.7-15.6z" stroke="#000" stroke-opacity="0" fill="#f78d1e"/><path d="M687.28 574.4l-26.7 15.68-26.68-15.7 26.7-15.7 26.68 15.7z" stroke="#000" stroke-opacity="0" fill="#ffb34d"/><path d="M660.6 590.03v31.2l-26.7-15.64v-31.2l26.7 15.63z" stroke="#000" stroke-opacity="0" fill="#faa21d"/><path d="M728.6 535.5h-62.05c-.56 0-1.27-.12-1.84-.58l-17.6-11.83c-.56-.36-1.13-.6-1.84-.6h-52.1c-1.85 0-3.27 1.52-3.27 3.4v110.33c0 1.87 1.56 3.4 3.26 3.4H728.6c1.84 0 3.26-1.53 3.26-3.4v-97.45c0-1.76-1.56-3.28-3.27-3.28z" stroke="#000" stroke-opacity="0" fill="#dfa500"/><path d="M604.15 528.92h29.52c.9 0 1.35.46 1.35 1.37v3.76c0 .92-.45 1.37-1.35 1.37h-29.52c-.9 0-1.35-.45-1.35-1.37v-3.77c0-.92.45-1.38 1.35-1.38z" stroke="#000" stroke-opacity="0" fill="#fff"/><path d="M728.6 535.4h-68c-1 0-1.85.3-2.42.92l-10.93 11.14c-.7.63-1.42.94-2.42.94h-51.67c-1.85 0-3.27 1.46-3.27 3.33v84.44c0 1.88 1.56 3.34 3.26 3.34H728.6c1.7 0 3.26-1.45 3.26-3.33v-97.45c0-1.88-1.56-3.34-3.27-3.34z" stroke="#000" stroke-opacity="0" fill="url(#c)"/><path d="M679.85 614.6c-13.37 10.77-32.86 8.63-43.54-4.85-10.67-13.5-8.55-33.2 4.82-43.98.25-.25.5-.44.75-.63l.3-.25c13.63-10.48 33.06-7.9 43.42 5.85 10.36 13.73 7.8 33.33-5.75 43.85" stroke="#000" stroke-opacity="0" fill="url(#d)"/><path d="M653.92 588.8c0 5.55-4.45 10.06-9.94 10.06-5.48 0-9.94-4.5-9.94-10.07s4.46-10.08 9.94-10.08c5.5 0 9.94 4.5 9.94 10.07z" stroke="#000" stroke-opacity="0" fill="url(#e)"/><path d="M671.54 607.18c0 3.62-2.9 6.56-6.47 6.56s-6.47-2.94-6.47-6.56c0-3.62 2.9-6.56 6.47-6.56s6.47 2.94 6.47 6.56z" stroke="#000" stroke-opacity="0" fill="url(#f)"/><path d="M686.68 590.96c0 3.84-3.07 6.97-6.87 6.97-3.78 0-6.86-3.13-6.86-6.97 0-3.85 3.08-6.97 6.87-6.97 3.8 0 6.88 3.1 6.88 6.96z" stroke="#000" stroke-opacity="0" fill="#fff"/><path d="M634.04 605.72c.73 1.23 1.4 2.25 2.28 3.4.66.88 1.26 1.6 2 2.4.94-4.63 2.12-8.46 3.96-12.8-2.05-.35-3.7-1.2-5.2-2.67-1.3 3.3-2.2 6.2-3.04 9.67zM640.7 579.25c-1.35-3.68-2.1-6.93-2.5-10.84-1.6 1.74-2.8 3.34-4 5.38.44 3.1 1.05 5.7 2.06 8.7 1.2-1.56 2.6-2.57 4.44-3.23zM651.27 595.6c-1.5 1.62-3.26 2.58-5.44 3 1.7 1.8 3.3 3.2 5.3 4.7 2.45 1.87 4.68 3.23 7.46 4.58-.07-.3-.1-.54-.1-.83 0-1.84.65-3.4 1.95-4.65-3.53-1.97-6.3-4-9.18-6.8zM671.52 606.7v.4c0 1.78-.6 3.3-1.84 4.57 4.3.86 8.04 1.13 12.42.9 1.65-1.57 2.9-3.06 4.2-4.94-1.67.18-3.07.26-4.75.26-3.55 0-6.56-.36-10.03-1.2zM675.12 585.97c-4.44-3.32-8-6.43-11.87-10.4 7.06-3.6 13.74-5.25 21.62-5.37-1.68-2.1-3.3-3.67-5.42-5.3-6.2.38-11.38 1.63-17.1 4.06-1.2.53-2.24 1.27-3.36 1.87l-.12-.12c-2.9-3.5-5.08-6.7-7.2-10.72-1.42.44-2.62.92-3.96 1.54 2.24 4.27 4.48 7.7 7.54 11.4-2.95 1.94-5.26 3.83-7.73 6.38 2.13.8 3.7 2.1 4.9 4.03 2.27-2.2 4.4-3.88 7.1-5.54 4.32 4.55 8.35 8.08 13.4 11.8.33-1.47 1.07-2.65 2.2-3.63zM690.1 595l-.1-.07-1.1-.6-.2-.1-.98-.54-.23-.15-1.16-.66c-.4 1.4-1.16 2.5-2.32 3.4l1.36.8.3.17 1.28.7.12.08c1.03.56 2.07 1.12 3.15 1.67.47-1.4.77-2.64 1.04-4.1z" stroke="#000" stroke-opacity="0" fill="#f2f2f2" fill-opacity=".55"/><path d="M653.92 588.8c0 5.55-4.45 10.06-9.94 10.06-5.48 0-9.94-4.5-9.94-10.07s4.46-10.08 9.94-10.08c5.5 0 9.94 4.5 9.94 10.07zM671.54 607.18c0 3.62-2.9 6.56-6.47 6.56s-6.47-2.94-6.47-6.56c0-3.62 2.9-6.56 6.47-6.56s6.47 2.94 6.47 6.56z" stroke="#000" stroke-opacity="0" fill="#fff"/><use xlink:href="#g" transform="matrix(1,0,0,1,559.8930444028642,648.622115075394) translate(34.009567901234576 17.955555555555552)"/><use xlink:href="#h" transform="matrix(1,0,0,1,559.8930444028642,648.622115075394) translate(85.88117283950616 17.955555555555552)"/><path d="M949.37 589.93c-4.64-4.47-4.64-12.1 0-16.56l71.05-71.05c4.48-4.64 12.1-4.64 16.57 0l71.04 71.05c4.64 4.47 4.64 12.1 0 16.56L1037 661c-4.48 4.63-12.1 4.63-16.58 0l-71.05-71.07z" stroke="#000" stroke-opacity="0" stroke-width="17.86" fill="#ee513b"/><path d="M1005.85 516.9l-7.12 7.28 18.55 18.55c-.66 1.66-1.16 3.3-1.16 5.3 0 5.3 3.48 9.94 8.1 11.76v45.37c-4.62 1.82-8.1 6.46-8.1 11.76 0 6.96 5.63 12.6 12.6 12.6 6.94 0 12.57-5.64 12.57-12.6 0-4.8-2.82-9.1-6.8-11.1V559.8l17.72 17.7c-.82 1.67-1.15 3.5-1.15 5.3 0 6.97 5.63 12.6 12.58 12.6 6.96 0 12.6-5.63 12.6-12.6 0-6.94-5.64-12.57-12.6-12.57-1.32 0-2.65.16-3.8.5l-19.22-19.06c.5-1.15.66-2.3.66-3.64 0-6.95-5.64-12.6-12.6-12.6-1.32 0-2.48.18-3.8.5l-19.05-19.04z" stroke="#000" stroke-opacity="0" stroke-width="17.86" fill="#fff"/><path d="M966.6 681.34a6 6 0 0 1 6-6h112.22a6 6 0 0 1 6 6v19.05a6 6 0 0 1-6 6H972.6a6 6 0 0 1-6-6z" fill="none"/><use xlink:href="#i" transform="matrix(1,0,0,1,966.5968868603358,675.3350780478347) translate(45.5 21.333333333333332)"/><path d="M1413.48 498.84c49.13 0 89 40.77 89 91.33 0 40.23-25.45 74.4-60.87 86.52-4.44.88-6.05-1.97-6.05-4.46 0-2.85.18-12.82.18-24.92 0-8.55-2.85-14.07-6.05-16.92 19.76-2.3 40.6-9.97 40.6-45.04 0-9.97-3.4-18.16-9.1-24.57.9-2.32 3.93-11.58-.88-24.04 0 0-7.48-2.5-24.57 9.26-7.12-1.96-14.6-3.03-22.25-3.03-7.48 0-15.13 1.06-22.25 3.02-17.1-11.75-24.57-9.26-24.57-9.26-4.8 12.46-1.78 21.72-.9 24.03-5.5 6.4-9.07 14.6-9.07 24.56 0 34.9 20.82 42.73 40.58 45.04-2.67 2.32-5 6.4-5.7 12.3-4.98 2.3-17.98 6.4-26-7.67 0 0-4.62-8.72-13.52-9.43 0 0-8.72 0-.7 5.5 0 0 5.86 2.86 9.96 13.37 0 0 5.16 16.38 29.9 10.86.18 7.65.18 14.77.18 16.9 0 2.5-1.6 5.35-6.05 4.46-35.43-12.12-60.88-46.3-60.88-86.53 0-50.56 39.87-91.33 89-91.33" stroke="#000" stroke-opacity="0" stroke-width="25"/><path d="M1277.14 694.13a6 6 0 0 1 6-6h271.93a6 6 0 0 1 6 6v58.98a6 6 0 0 1-6 6h-271.93a6 6 0 0 1-6-6z" fill="none"/><use xlink:href="#j" transform="matrix(1,0,0,1,1277.144390968516,688.1266776218146) translate(67.25925925925927 40.83333333333333)"/><use xlink:href="#k" transform="matrix(1,0,0,1,1277.144390968516,688.1266776218146) translate(153.1111111111111 40.83333333333333)"/><path d="M1118.37 581.65H1318" stroke="#3a414a" fill="none"/><path d="M1112.47 581.65l12.92-7.63v15.27zM1323.9 581.65l-12.9 7.64V574z" stroke="#3a414a" fill="#3a414a"/><path d="M1739.95 498.84c-20.23 0-36.9 16.68-36.9 36.9 0 17.93 12.77 32.84 29.62 36.2v52.54c0 16.32 13.3 29.63 29.46 29.63h.36c1.76 12.44 12.6 22.2 25.54 22.2 14.2 0 25.9-11.72 25.9-25.9 0-14.2-11.7-25.92-25.9-25.92-12.95 0-23.78 9.76-25.55 22.18h-.37c-12.07 0-22.18-9.94-22.18-22.18V587.2c5.14 5.16 11.18 7.82 18.45 7.82h4.1c1.76 12.42 12.6 22.18 25.54 22.18 12.95 0 23.78-9.76 25.55-22.18h15.43c1.78 12.42 12.6 22.18 25.56 22.18 14.18 0 25.9-11.7 25.9-25.9s-11.72-25.9-25.9-25.9c-12.97 0-23.8 9.75-25.57 22.17h-15.44c-1.78-12.42-12.6-22.18-25.56-22.18-12.95 0-23.78 9.75-25.55 22.17h-4.1c-8.87 0-16.32-6.4-18.1-14.73 20.23-.18 36.74-16.86 36.74-37.1 0-20.22-16.68-36.9-37.1-36.9zm0 7.45c16.33-.18 29.63 13.12 29.63 29.45s-13.13 29.64-29.45 29.64h-.18c-16.33 0-29.46-13.14-29.46-29.47v-.18c-.2-16.33 13.12-29.46 29.45-29.46zm-7.1 10.46c-3.9 0-7.63 3.02-7.63 7.28v23.6c0 5.68 6.57 9.23 11.36 6.2l18.8-11.7c4.62-2.66 4.62-9.58 0-12.42l-18.8-11.9c-1.24-.88-2.5-1.06-3.73-1.06zm-.18 7.28l18.8 11.9-18.8 11.7v-23.6zm55.37 48.8c10.3-.18 18.45 8.16 18.45 18.28v.17c.17 10.1-8.17 18.45-18.28 18.45h-.18c-10.12 0-18.46-8.16-18.46-18.46s8.17-18.46 18.46-18.46zm66.55 0c10.28-.18 18.44 8.16 18.44 18.28v.17c.18 10.1-8.16 18.45-18.28 18.45h-.17c-10.13 0-18.47-8.16-18.47-18.46s8.16-18.46 18.45-18.46zm-58.93 9.58c-1.07 0-1.95.36-2.66 1.07l-8.7 8.68-3-2.84c-1.42-1.42-3.73-1.42-5.15 0-1.42 1.42-1.42 3.73 0 5.15l5.5 5.5c1.42 1.6 3.73 1.6 5.15 0l11.35-11.2c1.42-1.6 1.42-3.9 0-5.3-.7-.72-1.6-1.08-2.48-1.08zm66.55 0c-1.07 0-1.96.36-2.67 1.07l-8.7 8.68-3-2.84c-1.43-1.42-3.73-1.42-5.15 0-1.42 1.42-1.42 3.73 0 5.15l5.5 5.5c1.42 1.6 3.72 1.6 5.14 0l11.36-11.2c1.42-1.6 1.42-3.9 0-5.3-.7-.72-1.6-1.08-2.48-1.08zm-74.18 49.5c10.3 0 18.45 8.18 18.45 18.47.17 10.28-8.17 18.44-18.28 18.44h-.18c-10.12.18-18.46-8.16-18.46-18.27v-.18c0-10.13 8.17-18.47 18.46-18.47zm-7.45 12.97c-3.03 0-5.5 2.47-5.5 5.5 0 3 2.47 5.5 5.5 5.5 3.18 0 5.67-2.5 5.67-5.5 0-3.03-2.5-5.5-5.68-5.5zm14.9 0c-3.02 0-5.5 2.47-5.5 5.5 0 3 2.48 5.5 5.5 5.5 3 0 5.5-2.5 5.5-5.5 0-3.03-2.5-5.5-5.5-5.5zm-14.9 3.7c1.05 0 1.94.72 1.94 1.8 0 1.05-.9 1.94-1.95 1.94-.9 0-1.8-.9-1.8-1.95 0-1.08.9-1.8 1.8-1.8zm14.9 0c1.06 0 1.77.72 1.77 1.8 0 1.05-.7 1.94-1.78 1.94-1.07 0-1.96-.9-1.96-1.95 0-1.08.9-1.8 1.95-1.8z" stroke="#000" stroke-opacity="0" stroke-width="1.17" fill="#2088ff"/><path d="M1854.6 624.48c-12.97 0-23.8 9.76-25.57 22.36-.18 0-.35-.18-.35-.18l-3.73.18c-2.13.18-3.73 1.77-3.55 3.9 0 1.96 1.78 3.55 3.73 3.55l3.72-.2h.18c1.78 12.6 12.6 22.2 25.56 22.2 14.18 0 25.9-11.72 25.9-25.9 0-14.2-11.72-25.92-25.9-25.92zm0 7.45c10.28 0 18.44 8.17 18.44 18.46.18 10.28-8.16 18.44-18.28 18.44h-.17c-10.13.18-18.47-8.16-18.47-18.27v-.18c0-10.13 8.16-18.47 18.45-18.47z" stroke="#000" stroke-opacity="0" stroke-width="1.17" fill="#79b8ff"/><path d="M1679.38 688.78a6 6 0 0 1 6-6h271.93a6 6 0 0 1 6 6v58.98a6 6 0 0 1-6 6H1685.4a6 6 0 0 1-6-6z" fill="none"/><use xlink:href="#j" transform="matrix(1,0,0,1,1679.3773486705404,682.7820803998351) translate(55.40740740740742 24.833333333333336)"/><use xlink:href="#l" transform="matrix(1,0,0,1,1679.3773486705404,682.7820803998351) translate(141.25925925925924 24.833333333333336)"/><use xlink:href="#m" transform="matrix(1,0,0,1,1679.3773486705404,682.7820803998351) translate(105.81481481481482 56.83333333333333)"/><path d="M1509.32 587.85h108.1a.14.14 0 0 0 .14-.14.14.14 0 0 1 .14-.13h108.1" stroke="#3a414a" fill="none"/><path d="M1503.43 587.85l12.9-7.63v15.27zM1731.7 587.57l-12.92 7.63v-15.27z" stroke="#3a414a" fill="#3a414a"/><path d="M661.97 184.38V110.7" stroke="#3a414a" fill="none"/><path d="M661.97 190.27l-7.64-12.9h15.27zM661.97 95.94l4.63 14.27h-9.27z" stroke="#3a414a" fill="#3a414a"/><path d="M589.85 191.25c-8.16 0-14.77 6.7-14.77 14.84v80.25c0 8.14 6.6 14.85 14.77 14.85h144.23c8.16 0 14.77-6.7 14.77-14.85V206.1c0-8.14-6.6-14.85-14.77-14.85H589.85zm0 13.2h144.23c.87 0 1.56.65 1.56 1.64v80.25c0 1-.7 1.65-1.56 1.65H589.85c-.87 0-1.56-.66-1.56-1.65V206.1c0-1 .68-1.66 1.55-1.66z" stroke="#000" stroke-opacity="0" stroke-width="1.17"/><path d="M602.02 274.04V218.4h16.16l16.16 20.46 16.33-20.45h16.16v55.64h-16.16v-31.88l-16.33 20.45-16.16-20.44v31.88h-16.16zm101.3 0L679 247h16.15v-28.6h16.34V247h16.15zm0 0" stroke="#000" stroke-opacity="0" stroke-width="1.17"/><path d="M520 291.9a6 6 0 0 1 6-6h271.93a6 6 0 0 1 6 6v58.98a6 6 0 0 1-6 6H526a6 6 0 0 1-6-6z" fill="none"/><use xlink:href="#n" transform="matrix(1,0,0,1,520.0000000000001,285.8937199197904) translate(76.11111111111113 40.83333333333333)"/><path d="M738.73 581.06H939.1" stroke="#3a414a" fill="none"/><path d="M732.84 581.06l12.9-7.63v15.27zM945 581.06l-12.9 7.64v-15.27z" stroke="#3a414a" fill="#3a414a"/><path d="M2336.05 689.78h234.16v131.34c0 4.3-3.5 7.8-7.7 7.8h-218.73c-4.2 0-7.72-3.5-7.72-7.8V689.78z" stroke="#000" stroke-opacity="0" fill="url(#o)"/><path d="M2360.95 703.6h186.33c5.25 0 7.88 2.56 7.88 7.8v95.7c0 5.24-2.63 7.8-7.88 7.8h-186.33c-5.25 0-7.88-2.56-7.88-7.8v-95.7c0-5.24 2.63-7.8 7.88-7.8z" stroke="#000" stroke-opacity="0" fill="#5ea0ef" fill-opacity=".6"/><path d="M2343.77 639.62h218.72c4.2 0 7.7 3.5 7.7 7.83v42.33h-234.15V647.5c0-4.37 3.5-7.88 7.72-7.88z" stroke="#000" stroke-opacity="0" fill="#005ba1"/><path d="M2428.53 789.5l-4.1 4.2c-.73.73-1.97.77-2.72.04v-.04l-30.2-30.56c-1.5-1.47-1.5-3.87 0-5.38l4.2-4.2 32.83 33.26c.74.73.74 1.95 0 2.7zm47.56 0l4.08 4.2c.13 0 .13 0 .13.04.75.73 1.86.7 2.6-.04l30.23-30.56c1.5-1.47 1.5-3.87 0-5.38l-4.2-4.2-32.84 33.26c-.75.73-.75 1.95 0 2.7z" stroke="#000" stroke-opacity="0" fill="#fff" fill-opacity=".8"/><path d="M2424.93 726.9l4.22 4.18c.74.74.74 1.93 0 2.67l-33.45 33.64-4.2-4.24c-1.5-1.48-1.5-3.86 0-5.34l30.83-30.97c.75-.74 1.86-.7 2.6.04zm54.76 0l-4.22 4.18c-.75.74-.75 1.97 0 2.67l33.57 33.64 4.08-4.2c1.5-1.52 1.5-3.9 0-5.38l-30.84-30.93v-.05c-.76-.7-1.87-.7-2.6.04zM2442.23 804.4l-6.65-2.17c-.73-.18-1.1-1-.88-1.7l27.14-85.34c.22-.73.92-1.18 1.6-.9h.12l6.65 2.16c.7.18 1.1.9.92 1.53l-.03.08-27.2 85.5c-.2.73-.94 1.1-1.6.82h-.07zM2377.2 666.86c0 5.5-4.42 9.94-9.84 9.94-5.5 0-9.9-4.45-9.9-9.94 0-5.5 4.4-9.94 9.9-9.94 5.4 0 9.84 4.46 9.84 9.94zm21.23-9.94c-5.4 0-9.84 4.46-9.84 9.94 0 5.5 4.42 9.94 9.83 9.94 5.5 0 9.9-4.45 9.9-9.94 0-5.5-4.4-9.94-9.9-9.94zm31.06 0c-5.42 0-9.84 4.46-9.84 9.94 0 5.5 4.42 9.94 9.83 9.94 5.48 0 9.9-4.45 9.9-9.94v-.02c0-5.5-4.42-9.94-9.9-9.92z" stroke="#000" stroke-opacity="0" fill="#fff"/><use xlink:href="#p" transform="matrix(1,0,0,1,2306.0454498845247,837.9082128175232) translate(32.47222222222226 17.955555555555552)"/><use xlink:href="#q" transform="matrix(1,0,0,1,2306.0454498845247,837.9082128175232) translate(97.24938271604941 17.955555555555552)"/><use xlink:href="#r" transform="matrix(1,0,0,1,2306.0454498845247,837.9082128175232) translate(159.5327160493827 17.955555555555552)"/><use xlink:href="#s" transform="matrix(1,0,0,1,2306.0454498845247,837.9082128175232) translate(211.4043209876543 17.955555555555552)"/><path d="M1887 587.57h281.38" stroke="#3a414a" fill="none"/><path d="M1881.12 587.57l12.9-7.64v15.27zM2174.27 587.58l-12.9 7.63v-15.26z" stroke="#3a414a" fill="#3a414a"/><path d="M2353.6 448.1h204.9v114.78c0 3.9-3.08 6.94-6.77 6.94h-191.37c-3.7 0-6.76-3.04-6.76-6.94v-114.8z" stroke="#000" stroke-opacity="0" fill="url(#t)"/><path d="M2360.56 404.2h191.17c3.7 0 6.76 3.07 6.76 6.9v37h-204.9v-37c0-3.83 3.07-6.9 6.76-6.9h.2z" stroke="#000" stroke-opacity="0" fill="#0078d4"/><path d="M2384.7 417.3h142.9c2.24 0 3.44 1.17 3.44 3.47v10.8c0 2.3-1.2 3.47-3.45 3.47h-142.9c-2.24 0-3.44-1.16-3.44-3.46v-10.8c0-2.3 1.2-3.46 3.44-3.46z" stroke="#000" stroke-opacity="0" fill="#f2f2f2"/><use xlink:href="#u" transform="matrix(1,0,0,1,2323.5975933475574,578.822866532984) translate(34.533024691358065 23.288888888888884)"/><use xlink:href="#v" transform="matrix(1,0,0,1,2323.5975933475574,578.822866532984) translate(123.96882716049383 23.288888888888884)"/><path d="M2539.3-7.32v-98.38c0-4.83-4.32-12.92-9.8-12.92h-170.34c-5.48 0-10.73 8.1-10.73 12.92v98.38c-19.18 20.44-18.27 20.44-18.27 20.44 0 5.82 5.25 10.22 12.1 10.22h204.13c6.84 0 12.1-4.82 12.1-10.22L2539.3-7.32zm-79.22 22.15h-35.62c-1.82 0-3.65-.86-3.65-1.7l4.12-6.68c0-.85 1.37-1.42 3.2-1.42h28.3c1.38 0 2.75.57 2.75 1.42l4.57 6.67c0 1.28-1.83 1.7-3.66 1.7zm70.8-22.72h-174v-96.95c0-2.27 2.28-5.4 4.8-5.4h164.85c2.5 0 4.34 3.13 4.34 5.4V-7.9z" stroke="#000" stroke-opacity="0" fill="#2a3282"/><use xlink:href="#w" transform="matrix(1,0,0,1,2300.159788188427,32.34296219437866) translate(115.25987654320988 17.955555555555552)"/><path d="M2456.05 403.7V89.33" stroke="#3a414a" fill="none"/><path d="M2456.52 404.2h-.95v-.5h.95z" stroke="#3a414a" stroke-width=".05" fill="#3a414a"/><path d="M2456.05 74.56l4.63 14.27h-9.27z" stroke="#3a414a" fill="#3a414a"/><path d="M2176.25 272.52a6 6 0 0 1 6-6h518a6 6 0 0 1 6 6v650.5a6 6 0 0 1-6 6h-518a6 6 0 0 1-6-6z" fill="#fff" fill-opacity="0"/><path d="M2202.57 266.52h20.3m10.17 0h20.3m10.17 0h20.32m10.16 0h20.3m10.17 0h20.3m10.17 0h20.3m10.17 0h20.3m10.16 0h20.32m10.15 0h20.32m10.15 0h20.32m10.15 0h20.32m10.14 0h20.32m10.16 0h20.3m10.17 0h20.3m10.16 0h20.3m10.17 0h20.3m10.17 0h10.15l.94.07.9.2.88.37.8.5.72.6.6.72.5.8.36.86.22.92.07.94v9.85m0 9.86v19.7m0 9.87v19.7m0 9.87v19.7m0 9.86v19.7m0 9.87v19.7m0 9.87v19.7m0 9.87v19.7m0 9.87v19.72m0 9.85v19.72m0 9.84v19.7m0 9.87v19.72m0 9.86v19.7m0 9.87v19.7m0 9.87v19.7m0 9.86v19.72m0 9.85v19.7m0 9.87v19.7m0 9.87v19.7m0 9.86v19.7m0 9.87v19.7m0 9.86v19.7m0 9.86v9.86l-.07.94-.22.9-.36.88-.5.8-.6.72-.72.6-.8.5-.87.36-.9.22-.95.08h-10.15m-10.16 0h-20.3m-10.17 0h-20.3m-10.17 0h-20.3m-10.17 0h-20.32m-10.14 0h-20.32m-10.15 0h-20.33m-10.15 0h-20.32m-10.15 0h-20.32m-10.15 0h-20.32m-10.16 0h-20.3m-10.17 0h-20.3m-10.17 0h-20.3m-10.17 0h-20.32m-10.16 0h-20.3m-10.17 0h-20.3m-10.17 0h-20.3m-10.17 0h-10.15l-.93-.08-.92-.22-.87-.36-.8-.5-.72-.6-.6-.72-.5-.8-.35-.87-.22-.9-.08-.95v-9.86m0-9.85v-19.7m0-9.86v-19.72m0-9.85v-19.7m0-9.87v-19.7m0-9.87v-19.7m0-9.87v-19.7m0-9.86v-19.72m0-9.85v-19.7m0-9.87v-19.7m0-9.87v-19.72m0-9.86v-19.7m0-9.87v-19.7m0-9.86v-19.73m0-9.85v-19.7m0-9.87v-19.7m0-9.87v-19.7m0-9.87v-19.7m0-9.86v-19.7m0-9.86v-19.7m0-9.87v-19.7m0-9.86v-19.7m0-9.87v-9.85l.08-.94.22-.92.36-.87.5-.8.6-.73.73-.6.8-.5.87-.36.9-.2.95-.08h10.16" stroke="#0e76d4" stroke-width="2" fill="none"/><path d="M2176.25 266.52h56v56h-56v-56z" stroke="#000" stroke-opacity="0" fill-opacity="0"/><path d="M2204.3 292.1c-.07 0-.12 0-.2-.05l-11.76-6.8c-.1-.06-.17-.17-.17-.3 0-.13.07-.24.17-.3l11.7-6.76c.12-.06.24-.06.36 0l11.77 6.8c.1.05.17.18.17.3 0 .13-.07.25-.17.3l-11.7 6.75c-.05.04-.12.05-.17.05z" stroke="#000" stroke-opacity="0" fill="#3999c6"/><path d="M2202.6 308.6c-.06 0-.12 0-.2-.03l-11.7-6.78c-.13-.08-.2-.18-.2-.3v-13.6c0-.13.07-.25.2-.32.1-.06.23-.06.34 0l11.74 6.8c.1.05.17.16.17.28v13.6c0 .12-.06.25-.17.3-.07.03-.12.05-.18.05zM2205.92 308.6c-.06 0-.12 0-.18-.03-.12-.06-.18-.2-.18-.3v-13.5c0-.13.06-.26.18-.32l11.73-6.78c.1-.06.24-.06.36 0 .1.07.17.2.17.32v13.48c0 .15-.06.25-.17.3l-11.73 6.8-.18.03z" stroke="#000" stroke-opacity="0" fill="#59b4d9"/><path d="M2205.92 308.6c-.06 0-.12 0-.18-.03-.12-.06-.18-.2-.18-.3v-13.5c0-.13.06-.26.18-.32l11.73-6.78c.1-.06.24-.06.36 0 .1.07.17.2.17.32v13.48c0 .15-.06.25-.17.3l-11.73 6.8-.18.03z" stroke="#000" stroke-opacity="0" fill="#fff" fill-opacity="0"/><path d="M2191.9 310.12c-.2 0-.4-.06-.58-.16l-5.48-3.16c-.92-.52-1.6-1.68-1.6-2.74v-20.14c0-1.07.68-2.23 1.6-2.75l5.48-3.16c.55-.3 1.27-.12 1.6.43.3.55.12 1.26-.44 1.58l-5.48 3.18c-.2.13-.42.5-.42.74v20.14c0 .22.23.6.42.74l5.48 3.16c.56.32.75 1.03.43 1.58-.2.4-.6.58-1 .58zM2216.6 277.85c.2 0 .4.06.6.16l5.47 3.17c.9.52 1.58 1.68 1.58 2.75v20.13c0 1.07-.67 2.23-1.58 2.75l-5.48 3.16c-.57.32-1.28.13-1.6-.42-.33-.55-.13-1.26.42-1.58l5.48-3.16c.2-.13.43-.52.43-.75v-20.13c0-.23-.23-.62-.43-.75l-5.48-3.16c-.55-.3-.75-1.02-.42-1.57.2-.4.6-.58 1-.58z" stroke="#000" stroke-opacity="0" fill="#7a7a7a"/><g><use xlink:href="#x" transform="matrix(1,0,0,1,2252.253355243629,286.5163712492498) translate(0 17.955555555555552)"/><use xlink:href="#y" transform="matrix(1,0,0,1,2252.253355243629,286.5163712492498) translate(102.12222222222219 17.955555555555552)"/></g><path d="M2311.16 935.02a6 6 0 0 1 6-6h271.93a6 6 0 0 1 6 6V994a6 6 0 0 1-6 6h-271.93a6 6 0 0 1-6-6z" fill="none"/><g><use xlink:href="#z" transform="matrix(1,0,0,1,2311.165060748317,929.0177133467015) translate(74.23456790123457 45.27777777777778)"/></g><path d="M660.88 525.47V363.76" stroke="#3a414a" fill="none"/><path d="M660.88 531.36l-7.64-12.9h15.27zM660.88 357.86l7.63 12.9h-15.26z" stroke="#3a414a" fill="#3a414a"/><defs><path fill="#3a414a" d="M197 0v-115H63V0H30v-248h33v105h134v-105h34V0h-34" id="A"/><path fill="#3a414a" d="M232-93c-1 65-40 97-104 97C67 4 28-28 28-90v-158h33c8 89-33 224 67 224 102 0 64-133 71-224h33v155" id="B"/><path fill="#3a414a" d="M143 4C61 4 22-44 18-125c-5-107 100-154 193-111 17 8 29 25 37 43l-32 9c-13-25-37-40-76-40-61 0-88 39-88 99 0 61 29 100 91 101 35 0 62-11 79-27v-45h-74v-28h105v86C228-13 192 4 143 4" id="C"/><path fill="#3a414a" d="M140-251c81 0 123 46 123 126C263-46 219 4 140 4 59 4 17-45 17-125s42-126 123-126zm0 227c63 0 89-41 89-101s-29-99-89-99c-61 0-89 39-89 99S79-25 140-24" id="D"/><g id="a"><use transform="matrix(0.07407407407407407,0,0,0.07407407407407407,0,0)" xlink:href="#A"/><use transform="matrix(0.07407407407407407,0,0,0.07407407407407407,19.185185185185183,0)" xlink:href="#B"/><use transform="matrix(0.07407407407407407,0,0,0.07407407407407407,38.37037037037037,0)" xlink:href="#C"/><use transform="matrix(0.07407407407407407,0,0,0.07407407407407407,59.11111111111111,0)" xlink:href="#D"/></g><linearGradient gradientUnits="userSpaceOnUse" id="b" x1="662.86" y1="497.6" x2="659.63" y2="645.33"><stop offset="0%" stop-color="#ffd400"/><stop offset="100%" stop-color="#ffbd02"/></linearGradient><linearGradient gradientUnits="userSpaceOnUse" id="c" x1="662.86" y1="497.6" x2="659.63" y2="645.33"><stop offset="0%" stop-color="#ffd400"/><stop offset="100%" stop-color="#ffbd02"/></linearGradient><radialGradient gradientUnits="userSpaceOnUse" id="d" fx="661.1" fy="580.85" cx="661.1" cy="580.85" r="70.36"><stop offset="18.3%" stop-color="#5ea0ef"/><stop offset="100%" stop-color="#0078d4"/></radialGradient><linearGradient gradientUnits="userSpaceOnUse" id="e" x1="661.44" y1="641.2" x2="660.65" y2="556.28"><stop offset="0%" stop-color="#ccc"/><stop offset="12.3%" stop-color="#d7d7d7"/><stop offset="100%" stop-color="#fcfcfc"/></linearGradient><linearGradient gradientUnits="userSpaceOnUse" id="f" x1="660.88" y1="639.62" x2="660.88" y2="522.43"><stop offset="0%" stop-color="#ccc"/><stop offset="12.3%" stop-color="#d7d7d7"/><stop offset="100%" stop-color="#fcfcfc"/></linearGradient><path d="M266 0h-40l-56-210L115 0H75L2-248h35L96-30l15-64 43-154h32l59 218 59-218h35" id="E"/><path d="M100-194c63 0 86 42 84 106H49c0 40 14 67 53 68 26 1 43-12 49-29l28 8c-11 28-37 45-77 45C44 4 14-33 15-96c1-61 26-98 85-98zm52 81c6-60-76-77-97-28-3 7-6 17-6 28h103" id="F"/><path d="M115-194c53 0 69 39 70 98 0 66-23 100-70 100C84 3 66-7 56-30L54 0H23l1-261h32v101c10-23 28-34 59-34zm-8 174c40 0 45-34 45-75 0-40-5-75-45-74-42 0-51 32-51 76 0 43 10 73 51 73" id="G"/><g id="g"><use transform="matrix(0.06234567901234567,0,0,0.06234567901234567,0,0)" xlink:href="#E"/><use transform="matrix(0.06234567901234567,0,0,0.06234567901234567,20.698765432098764,0)" xlink:href="#F"/><use transform="matrix(0.06234567901234567,0,0,0.06234567901234567,33.16790123456789,0)" xlink:href="#G"/></g><path d="M30-248c87 1 191-15 191 75 0 78-77 80-158 76V0H30v-248zm33 125c57 0 124 11 124-50 0-59-68-47-124-48v98" id="H"/><path d="M100-194c62-1 85 37 85 99 1 63-27 99-86 99S16-35 15-95c0-66 28-99 85-99zM99-20c44 1 53-31 53-75 0-43-8-75-51-75s-53 32-53 75 10 74 51 75" id="I"/><path d="M114-163C36-179 61-72 57 0H25l-1-190h30c1 12-1 29 2 39 6-27 23-49 58-41v29" id="J"/><path d="M59-47c-2 24 18 29 38 22v24C64 9 27 4 27-40v-127H5v-23h24l9-43h21v43h35v23H59v120" id="K"/><path d="M101-234c-31-9-42 10-38 44h38v23H63V0H32v-167H5v-23h27c-7-52 17-82 69-68v24" id="L"/><path d="M24 0v-261h32V0H24" id="M"/><path d="M24-231v-30h32v30H24zM24 0v-190h32V0H24" id="N"/><g id="h"><use transform="matrix(0.06234567901234567,0,0,0.06234567901234567,0,0)" xlink:href="#H"/><use transform="matrix(0.06234567901234567,0,0,0.06234567901234567,14.96296296296296,0)" xlink:href="#I"/><use transform="matrix(0.06234567901234567,0,0,0.06234567901234567,27.432098765432094,0)" xlink:href="#J"/><use transform="matrix(0.06234567901234567,0,0,0.06234567901234567,34.85123456790123,0)" xlink:href="#K"/><use transform="matrix(0.06234567901234567,0,0,0.06234567901234567,41.0858024691358,0)" xlink:href="#L"/><use transform="matrix(0.06234567901234567,0,0,0.06234567901234567,47.32037037037037,0)" xlink:href="#I"/><use transform="matrix(0.06234567901234567,0,0,0.06234567901234567,59.7895061728395,0)" xlink:href="#M"/><use transform="matrix(0.06234567901234567,0,0,0.06234567901234567,64.71481481481482,0)" xlink:href="#N"/><use transform="matrix(0.06234567901234567,0,0,0.06234567901234567,69.64012345679012,0)" xlink:href="#I"/></g><path fill="#3a414a" d="M24-231v-30h32v30H24zM24 0v-190h32V0H24" id="O"/><path fill="#3a414a" d="M59-47c-2 24 18 29 38 22v24C64 9 27 4 27-40v-127H5v-23h24l9-43h21v43h35v23H59v120" id="P"/><g id="i"><use transform="matrix(0.07407407407407407,0,0,0.07407407407407407,0,0)" xlink:href="#C"/><use transform="matrix(0.07407407407407407,0,0,0.07407407407407407,20.74074074074074,0)" xlink:href="#O"/><use transform="matrix(0.07407407407407407,0,0,0.07407407407407407,26.59259259259259,0)" xlink:href="#P"/></g><path fill="#3a414a" d="M106-169C34-169 62-67 57 0H25v-261h32l-1 103c12-21 28-36 61-36 89 0 53 116 60 194h-32v-121c2-32-8-49-39-48" id="Q"/><path fill="#3a414a" d="M84 4C-5 8 30-112 23-190h32v120c0 31 7 50 39 49 72-2 45-101 50-169h31l1 190h-30c-1-10 1-25-2-33-11 22-28 36-60 37" id="R"/><path fill="#3a414a" d="M115-194c53 0 69 39 70 98 0 66-23 100-70 100C84 3 66-7 56-30L54 0H23l1-261h32v101c10-23 28-34 59-34zm-8 174c40 0 45-34 45-75 0-40-5-75-45-74-42 0-51 32-51 76 0 43 10 73 51 73" id="S"/><g id="j"><use transform="matrix(0.07407407407407407,0,0,0.07407407407407407,0,0)" xlink:href="#C"/><use transform="matrix(0.07407407407407407,0,0,0.07407407407407407,20.74074074074074,0)" xlink:href="#O"/><use transform="matrix(0.07407407407407407,0,0,0.07407407407407407,26.59259259259259,0)" xlink:href="#P"/><use transform="matrix(0.07407407407407407,0,0,0.07407407407407407,34,0)" xlink:href="#Q"/><use transform="matrix(0.07407407407407407,0,0,0.07407407407407407,48.81481481481481,0)" xlink:href="#R"/><use transform="matrix(0.07407407407407407,0,0,0.07407407407407407,63.62962962962962,0)" xlink:href="#S"/></g><path fill="#3a414a" d="M233-177c-1 41-23 64-60 70L243 0h-38l-65-103H63V0H30v-248c88 3 205-21 203 71zM63-129c60-2 137 13 137-47 0-61-80-42-137-45v92" id="T"/><path fill="#3a414a" d="M100-194c63 0 86 42 84 106H49c0 40 14 67 53 68 26 1 43-12 49-29l28 8c-11 28-37 45-77 45C44 4 14-33 15-96c1-61 26-98 85-98zm52 81c6-60-76-77-97-28-3 7-6 17-6 28h103" id="U"/><path fill="#3a414a" d="M115-194c55 1 70 41 70 98S169 2 115 4C84 4 66-9 55-30l1 105H24l-1-265h31l2 30c10-21 28-34 59-34zm-8 174c40 0 45-34 45-75s-6-73-45-74c-42 0-51 32-51 76 0 43 10 73 51 73" id="V"/><path fill="#3a414a" d="M100-194c62-1 85 37 85 99 1 63-27 99-86 99S16-35 15-95c0-66 28-99 85-99zM99-20c44 1 53-31 53-75 0-43-8-75-51-75s-53 32-53 75 10 74 51 75" id="W"/><g id="k"><use transform="matrix(0.07407407407407407,0,0,0.07407407407407407,0,0)" xlink:href="#T"/><use transform="matrix(0.07407407407407407,0,0,0.07407407407407407,19.185185185185183,0)" xlink:href="#U"/><use transform="matrix(0.07407407407407407,0,0,0.07407407407407407,34,0)" xlink:href="#V"/><use transform="matrix(0.07407407407407407,0,0,0.07407407407407407,48.81481481481481,0)" xlink:href="#W"/></g><path fill="#3a414a" d="M205 0l-28-72H64L36 0H1l101-248h38L239 0h-34zm-38-99l-47-123c-12 45-31 82-46 123h93" id="X"/><path fill="#3a414a" d="M96-169c-40 0-48 33-48 73s9 75 48 75c24 0 41-14 43-38l32 2c-6 37-31 61-74 61-59 0-76-41-82-99-10-93 101-131 147-64 4 7 5 14 7 22l-32 3c-4-21-16-35-41-35" id="Y"/><path fill="#3a414a" d="M117-194c89-4 53 116 60 194h-32v-121c0-31-8-49-39-48C34-167 62-67 57 0H25l-1-190h30c1 10-1 24 2 32 11-22 29-35 61-36" id="Z"/><path fill="#3a414a" d="M135-143c-3-34-86-38-87 0 15 53 115 12 119 90S17 21 10-45l28-5c4 36 97 45 98 0-10-56-113-15-118-90-4-57 82-63 122-42 12 7 21 19 24 35" id="aa"/><g id="l"><use transform="matrix(0.07407407407407407,0,0,0.07407407407407407,0,0)" xlink:href="#X"/><use transform="matrix(0.07407407407407407,0,0,0.07407407407407407,17.77777777777778,0)" xlink:href="#Y"/><use transform="matrix(0.07407407407407407,0,0,0.07407407407407407,31.11111111111111,0)" xlink:href="#P"/><use transform="matrix(0.07407407407407407,0,0,0.07407407407407407,38.51851851851852,0)" xlink:href="#O"/><use transform="matrix(0.07407407407407407,0,0,0.07407407407407407,44.37037037037037,0)" xlink:href="#W"/><use transform="matrix(0.07407407407407407,0,0,0.07407407407407407,59.185185185185176,0)" xlink:href="#Z"/><use transform="matrix(0.07407407407407407,0,0,0.07407407407407407,73.99999999999999,0)" xlink:href="#aa"/></g><path fill="#3a414a" d="M212-179c-10-28-35-45-73-45-59 0-87 40-87 99 0 60 29 101 89 101 43 0 62-24 78-52l27 14C228-24 195 4 139 4 59 4 22-46 18-125c-6-104 99-153 187-111 19 9 31 26 39 46" id="ab"/><path fill="#3a414a" d="M33 0v-248h34V0H33" id="ac"/><path fill="#3a414a" d="M0 4l72-265h28L28 4H0" id="ad"/><path fill="#3a414a" d="M30-248c118-7 216 8 213 122C240-48 200 0 122 0H30v-248zM63-27c89 8 146-16 146-99s-60-101-146-95v194" id="ae"/><g id="m"><use transform="matrix(0.07407407407407407,0,0,0.07407407407407407,0,0)" xlink:href="#ab"/><use transform="matrix(0.07407407407407407,0,0,0.07407407407407407,19.185185185185183,0)" xlink:href="#ac"/><use transform="matrix(0.07407407407407407,0,0,0.07407407407407407,26.592592592592588,0)" xlink:href="#ad"/><use transform="matrix(0.07407407407407407,0,0,0.07407407407407407,33.99999999999999,0)" xlink:href="#ab"/><use transform="matrix(0.07407407407407407,0,0,0.07407407407407407,53.185185185185176,0)" xlink:href="#ae"/></g><path fill="#3a414a" d="M33 0v-38h34V0H33" id="af"/><path fill="#3a414a" d="M210-169c-67 3-38 105-44 169h-31v-121c0-29-5-50-35-48C34-165 62-65 56 0H25l-1-190h30c1 10-1 24 2 32 10-44 99-50 107 0 11-21 27-35 58-36 85-2 47 119 55 194h-31v-121c0-29-5-49-35-48" id="ag"/><path fill="#3a414a" d="M85-194c31 0 48 13 60 33l-1-100h32l1 261h-30c-2-10 0-23-3-31C134-8 116 4 85 4 32 4 16-35 15-94c0-66 23-100 70-100zm9 24c-40 0-46 34-46 75 0 40 6 74 45 74 42 0 51-32 51-76 0-42-9-74-50-73" id="ah"/><g id="n"><use transform="matrix(0.07407407407407407,0,0,0.07407407407407407,0,0)" xlink:href="#Y"/><use transform="matrix(0.07407407407407407,0,0,0.07407407407407407,13.333333333333332,0)" xlink:href="#W"/><use transform="matrix(0.07407407407407407,0,0,0.07407407407407407,28.148148148148145,0)" xlink:href="#Z"/><use transform="matrix(0.07407407407407407,0,0,0.07407407407407407,42.96296296296296,0)" xlink:href="#P"/><use transform="matrix(0.07407407407407407,0,0,0.07407407407407407,50.37037037037037,0)" xlink:href="#U"/><use transform="matrix(0.07407407407407407,0,0,0.07407407407407407,65.18518518518518,0)" xlink:href="#Z"/><use transform="matrix(0.07407407407407407,0,0,0.07407407407407407,79.99999999999999,0)" xlink:href="#P"/><use transform="matrix(0.07407407407407407,0,0,0.07407407407407407,87.40740740740739,0)" xlink:href="#af"/><use transform="matrix(0.07407407407407407,0,0,0.07407407407407407,94.8148148148148,0)" xlink:href="#ag"/><use transform="matrix(0.07407407407407407,0,0,0.07407407407407407,116.96296296296293,0)" xlink:href="#ah"/></g><linearGradient gradientUnits="userSpaceOnUse" id="o" x1="2453.13" y1="828.93" x2="2453.13" y2="639.6"><stop offset="0%" stop-color="#005ba1"/><stop offset="77.5%" stop-color="#0078d4"/></linearGradient><path d="M205 0l-28-72H64L36 0H1l101-248h38L239 0h-34zm-38-99l-47-123c-12 45-31 82-46 123h93" id="ai"/><path d="M9 0v-24l116-142H16v-24h144v24L44-24h123V0H9" id="aj"/><path d="M84 4C-5 8 30-112 23-190h32v120c0 31 7 50 39 49 72-2 45-101 50-169h31l1 190h-30c-1-10 1-25-2-33-11 22-28 36-60 37" id="ak"/><g id="p"><use transform="matrix(0.06234567901234567,0,0,0.06234567901234567,0,0)" xlink:href="#ai"/><use transform="matrix(0.06234567901234567,0,0,0.06234567901234567,14.96296296296296,0)" xlink:href="#aj"/><use transform="matrix(0.06234567901234567,0,0,0.06234567901234567,26.18518518518518,0)" xlink:href="#ak"/><use transform="matrix(0.06234567901234567,0,0,0.06234567901234567,38.654320987654316,0)" xlink:href="#J"/><use transform="matrix(0.06234567901234567,0,0,0.06234567901234567,46.07345679012345,0)" xlink:href="#F"/></g><path d="M185-189c-5-48-123-54-124 2 14 75 158 14 163 119 3 78-121 87-175 55-17-10-28-26-33-46l33-7c5 56 141 63 141-1 0-78-155-14-162-118-5-82 145-84 179-34 5 7 8 16 11 25" id="al"/><path d="M141-36C126-15 110 5 73 4 37 3 15-17 15-53c-1-64 63-63 125-63 3-35-9-54-41-54-24 1-41 7-42 31l-33-3c5-37 33-52 76-52 45 0 72 20 72 64v82c-1 20 7 32 28 27v20c-31 9-61-2-59-35zM48-53c0 20 12 33 32 33 41-3 63-29 60-74-43 2-92-5-92 41" id="am"/><path d="M96-169c-40 0-48 33-48 73s9 75 48 75c24 0 41-14 43-38l32 2c-6 37-31 61-74 61-59 0-76-41-82-99-10-93 101-131 147-64 4 7 5 14 7 22l-32 3c-4-21-16-35-41-35" id="an"/><g id="q"><use transform="matrix(0.06234567901234567,0,0,0.06234567901234567,0,0)" xlink:href="#al"/><use transform="matrix(0.06234567901234567,0,0,0.06234567901234567,14.96296296296296,0)" xlink:href="#K"/><use transform="matrix(0.06234567901234567,0,0,0.06234567901234567,21.197530864197525,0)" xlink:href="#am"/><use transform="matrix(0.06234567901234567,0,0,0.06234567901234567,33.66666666666666,0)" xlink:href="#K"/><use transform="matrix(0.06234567901234567,0,0,0.06234567901234567,39.90123456790123,0)" xlink:href="#N"/><use transform="matrix(0.06234567901234567,0,0,0.06234567901234567,44.82654320987653,0)" xlink:href="#an"/></g><g id="r"><use transform="matrix(0.06234567901234567,0,0,0.06234567901234567,0,0)" xlink:href="#E"/><use transform="matrix(0.06234567901234567,0,0,0.06234567901234567,20.698765432098764,0)" xlink:href="#F"/><use transform="matrix(0.06234567901234567,0,0,0.06234567901234567,33.16790123456789,0)" xlink:href="#G"/></g><path d="M115-194c55 1 70 41 70 98S169 2 115 4C84 4 66-9 55-30l1 105H24l-1-265h31l2 30c10-21 28-34 59-34zm-8 174c40 0 45-34 45-75s-6-73-45-74c-42 0-51 32-51 76 0 43 10 73 51 73" id="ao"/><path d="M135-143c-3-34-86-38-87 0 15 53 115 12 119 90S17 21 10-45l28-5c4 36 97 45 98 0-10-56-113-15-118-90-4-57 82-63 122-42 12 7 21 19 24 35" id="ap"/><g id="s"><use transform="matrix(0.06234567901234567,0,0,0.06234567901234567,0,0)" xlink:href="#ai"/><use transform="matrix(0.06234567901234567,0,0,0.06234567901234567,14.96296296296296,0)" xlink:href="#ao"/><use transform="matrix(0.06234567901234567,0,0,0.06234567901234567,27.432098765432094,0)" xlink:href="#ao"/><use transform="matrix(0.06234567901234567,0,0,0.06234567901234567,39.90123456790123,0)" xlink:href="#ap"/></g><linearGradient gradientUnits="userSpaceOnUse" id="t" x1="2456.05" y1="569.82" x2="2456.05" y2="404.2"><stop offset="0%" stop-color="#32bedd"/><stop offset="17.5%" stop-color="#32caea"/><stop offset="41%" stop-color="#32d2f2"/><stop offset="77.5%" stop-color="#32d4f5"/></linearGradient><path d="M240 0l2-218c-23 76-54 145-80 218h-23L58-218 59 0H30v-248h44l77 211c21-75 51-140 76-211h43V0h-30" id="aq"/><path d="M143 0L79-87 56-68V0H24v-261h32v163l83-92h37l-77 82L181 0h-38" id="ar"/><path d="M47-170H22l-4-78h33" id="as"/><g id="u"><use transform="matrix(0.08086419753086417,0,0,0.08086419753086417,0,0)" xlink:href="#aq"/><use transform="matrix(0.08086419753086417,0,0,0.08086419753086417,24.178395061728388,0)" xlink:href="#N"/><use transform="matrix(0.08086419753086417,0,0,0.08086419753086417,30.566666666666656,0)" xlink:href="#ar"/><use transform="matrix(0.08086419753086417,0,0,0.08086419753086417,45.122222222222206,0)" xlink:href="#F"/><use transform="matrix(0.08086419753086417,0,0,0.08086419753086417,61.29506172839504,0)" xlink:href="#as"/><use transform="matrix(0.08086419753086417,0,0,0.08086419753086417,66.7938271604938,0)" xlink:href="#ap"/></g><g id="v"><use transform="matrix(0.08086419753086417,0,0,0.08086419753086417,0,0)" xlink:href="#H"/><use transform="matrix(0.08086419753086417,0,0,0.08086419753086417,19.4074074074074,0)" xlink:href="#I"/><use transform="matrix(0.08086419753086417,0,0,0.08086419753086417,35.58024691358024,0)" xlink:href="#J"/><use transform="matrix(0.08086419753086417,0,0,0.08086419753086417,45.20308641975308,0)" xlink:href="#K"/><use transform="matrix(0.08086419753086417,0,0,0.08086419753086417,53.289506172839495,0)" xlink:href="#L"/><use transform="matrix(0.08086419753086417,0,0,0.08086419753086417,61.37592592592591,0)" xlink:href="#I"/><use transform="matrix(0.08086419753086417,0,0,0.08086419753086417,77.54876543209875,0)" xlink:href="#M"/><use transform="matrix(0.08086419753086417,0,0,0.08086419753086417,83.93703703703702,0)" xlink:href="#N"/><use transform="matrix(0.08086419753086417,0,0,0.08086419753086417,90.32530864197528,0)" xlink:href="#I"/></g><path d="M232-93c-1 65-40 97-104 97C67 4 28-28 28-90v-158h33c8 89-33 224 67 224 102 0 64-133 71-224h33v155" id="at"/><g id="w"><use transform="matrix(0.06234567901234567,0,0,0.06234567901234567,0,0)" xlink:href="#at"/><use transform="matrix(0.06234567901234567,0,0,0.06234567901234567,16.147530864197527,0)" xlink:href="#ap"/><use transform="matrix(0.06234567901234567,0,0,0.06234567901234567,27.36975308641975,0)" xlink:href="#F"/><use transform="matrix(0.06234567901234567,0,0,0.06234567901234567,39.83888888888888,0)" xlink:href="#J"/><use transform="matrix(0.06234567901234567,0,0,0.06234567901234567,47.25802469135802,0)" xlink:href="#ap"/></g><path d="M233-177c-1 41-23 64-60 70L243 0h-38l-65-103H63V0H30v-248c88 3 205-21 203 71zM63-129c60-2 137 13 137-47 0-61-80-42-137-45v92" id="au"/><g id="x"><use transform="matrix(0.06234567901234567,0,0,0.06234567901234567,0,0)" xlink:href="#au"/><use transform="matrix(0.06234567901234567,0,0,0.06234567901234567,16.147530864197527,0)" xlink:href="#F"/><use transform="matrix(0.06234567901234567,0,0,0.06234567901234567,28.61666666666666,0)" xlink:href="#ap"/><use transform="matrix(0.06234567901234567,0,0,0.06234567901234567,39.83888888888888,0)" xlink:href="#I"/><use transform="matrix(0.06234567901234567,0,0,0.06234567901234567,52.308024691358014,0)" xlink:href="#ak"/><use transform="matrix(0.06234567901234567,0,0,0.06234567901234567,64.77716049382715,0)" xlink:href="#J"/><use transform="matrix(0.06234567901234567,0,0,0.06234567901234567,72.19629629629628,0)" xlink:href="#an"/><use transform="matrix(0.06234567901234567,0,0,0.06234567901234567,83.4185185185185,0)" xlink:href="#F"/></g><path d="M143 4C61 4 22-44 18-125c-5-107 100-154 193-111 17 8 29 25 37 43l-32 9c-13-25-37-40-76-40-61 0-88 39-88 99 0 61 29 100 91 101 35 0 62-11 79-27v-45h-74v-28h105v86C228-13 192 4 143 4" id="av"/><g id="y"><use transform="matrix(0.06234567901234567,0,0,0.06234567901234567,0,0)" xlink:href="#av"/><use transform="matrix(0.06234567901234567,0,0,0.06234567901234567,17.456790123456788,0)" xlink:href="#J"/><use transform="matrix(0.06234567901234567,0,0,0.06234567901234567,24.875925925925923,0)" xlink:href="#I"/><use transform="matrix(0.06234567901234567,0,0,0.06234567901234567,37.34506172839505,0)" xlink:href="#ak"/><use transform="matrix(0.06234567901234567,0,0,0.06234567901234567,49.814197530864185,0)" xlink:href="#ao"/></g><path fill="#3a414a" d="M199 0l-22-63H83L61 0H9l90-248h61L250 0h-51zm-33-102l-36-108c-10 38-24 72-36 108h72" id="aw"/><path fill="#3a414a" d="M12 0v-35l95-120H19v-35h142v35L67-36h103V0H12" id="ax"/><path fill="#3a414a" d="M85 4C-2 5 27-109 22-190h50c7 57-23 150 33 157 60-5 35-97 40-157h50l1 190h-47c-2-12 1-28-3-38-12 25-28 42-61 42" id="ay"/><path fill="#3a414a" d="M135-150c-39-12-60 13-60 57V0H25l-1-190h47c2 13-1 29 3 40 6-28 27-53 61-41v41" id="az"/><path fill="#3a414a" d="M185-48c-13 30-37 53-82 52C43 2 14-33 14-96s30-98 90-98c62 0 83 45 84 108H66c0 31 8 55 39 56 18 0 30-7 34-22zm-45-69c5-46-57-63-70-21-2 6-4 13-4 21h74" id="aA"/><g id="z"><use transform="matrix(0.13580246913580246,0,0,0.13580246913580246,0,0)" xlink:href="#aw"/><use transform="matrix(0.13580246913580246,0,0,0.13580246913580246,35.172839506172835,0)" xlink:href="#ax"/><use transform="matrix(0.13580246913580246,0,0,0.13580246913580246,59.61728395061728,0)" xlink:href="#ay"/><use transform="matrix(0.13580246913580246,0,0,0.13580246913580246,89.35802469135803,0)" xlink:href="#az"/><use transform="matrix(0.13580246913580246,0,0,0.13580246913580246,108.37037037037037,0)" xlink:href="#aA"/></g></defs></g></svg>